HIERARCHY
ROOT Hips
{
	OFFSET 0.000000 71.427986 0.000000
	CHANNELS 6 Xposition Yposition Zposition Xrotation Yrotation Zrotation
	JOINT Pelvis
	{
		OFFSET 0.000000 0.000000 0.000000
		CHANNELS 3 Xrotation Yrotation Zrotation
		JOINT LeftUpLeg
		{
			OFFSET 6.797100 -2.508499 -1.318700
			CHANNELS 3 Xrotation Yrotation Zrotation
			JOINT LeftLeg
			{
				OFFSET 0.069008 -29.241863 0.690200
				CHANNELS 3 Xrotation Yrotation Zrotation
				JOINT LeftFoot
				{
					OFFSET -0.069008 -29.568123 -0.266800
					CHANNELS 3 Xrotation Yrotation Zrotation
					JOINT LeftToeBase
					{
						OFFSET 3.145500 -8.631000 16.059900
						CHANNELS 3 Xrotation Yrotation Zrotation
						End Site
						{
							OFFSET 0.000000 18.501587 0.000000
						}
					}
				}
			}
			JOINT Left_ShortSleeve
			{
				OFFSET 0.265923 -10.480953 1.153800
				CHANNELS 3 Xrotation Yrotation Zrotation
				End Site
				{
					OFFSET 1.725763 19.823879 0.000000
				}
			}
		}
		JOINT RightUpLeg
		{
			OFFSET -6.797100 -2.508499 -1.318700
			CHANNELS 3 Xrotation Yrotation Zrotation
			JOINT RightLeg
			{
				OFFSET -0.082453 -29.241932 0.688000
				CHANNELS 3 Xrotation Yrotation Zrotation
				JOINT RightFoot
				{
					OFFSET 0.082453 -29.568058 -0.264600
					CHANNELS 3 Xrotation Yrotation Zrotation
					JOINT RightToeBase
					{
						OFFSET -3.115300 -8.682800 16.113400
						CHANNELS 3 Xrotation Yrotation Zrotation
						End Site
						{
							OFFSET 0.000000 18.567114 0.000000
						}
					}
				}
			}
			JOINT Right_ShortSleeve
			{
				OFFSET -0.265923 -10.480953 1.153800
				CHANNELS 3 Xrotation Yrotation Zrotation
				End Site
				{
					OFFSET -1.725766 19.823910 0.000000
				}
			}
		}
	}
	JOINT Spine
	{
		OFFSET 0.000000 13.368103 0.470500
		CHANNELS 3 Xrotation Yrotation Zrotation
		JOINT Spine1
		{
			OFFSET 0.147000 13.837402 0.538800
			CHANNELS 3 Xrotation Yrotation Zrotation
			JOINT Spine2
			{
				OFFSET 0.168000 16.242897 -1.435500
				CHANNELS 3 Xrotation Yrotation Zrotation
				JOINT Neck
				{
					OFFSET 0.217200 18.631500 -1.679100
					CHANNELS 3 Xrotation Yrotation Zrotation
					JOINT Head
					{
						OFFSET 0.000000 6.599396 1.385900
						CHANNELS 3 Xrotation Yrotation Zrotation
						JOINT Hat
						{
							OFFSET -0.532200 27.220596 -10.096100
							CHANNELS 3 Xrotation Yrotation Zrotation
							End Site
							{
								OFFSET 0.000000 22.029861 0.000000
							}
						}
						JOINT HairD
						{
							OFFSET -10.777400 17.437393 -1.325900
							CHANNELS 3 Xrotation Yrotation Zrotation
							JOINT HairD1
							{
								OFFSET -3.290299 -11.051193 1.062200
								CHANNELS 3 Xrotation Yrotation Zrotation
								End Site
								{
									OFFSET 0.000000 11.579437 0.000000
								}
							}
						}
						JOINT HairB
						{
							OFFSET -10.777400 17.437393 1.467900
							CHANNELS 3 Xrotation Yrotation Zrotation
							JOINT HairB1
							{
								OFFSET -1.561200 -12.956299 3.590200
								CHANNELS 3 Xrotation Yrotation Zrotation
								End Site
								{
									OFFSET 0.000000 13.534866 0.000000
								}
							}
						}
						JOINT HairA
						{
							OFFSET 9.713100 17.437393 1.467900
							CHANNELS 3 Xrotation Yrotation Zrotation
							JOINT HairA1
							{
								OFFSET 1.561200 -12.956299 3.590200
								CHANNELS 3 Xrotation Yrotation Zrotation
								End Site
								{
									OFFSET 0.000000 13.534866 0.000000
								}
							}
						}
						JOINT HairC
						{
							OFFSET 9.713100 17.437393 -1.325900
							CHANNELS 3 Xrotation Yrotation Zrotation
							JOINT HairC1
							{
								OFFSET 3.290300 -11.051193 1.062200
								CHANNELS 3 Xrotation Yrotation Zrotation
								End Site
								{
									OFFSET 0.000000 11.579437 0.000000
								}
							}
						}
					}
				}
				JOINT LeftShoulder
				{
					OFFSET 5.101800 15.108002 -2.763700
					CHANNELS 3 Xrotation Yrotation Zrotation
					JOINT LeftArm
					{
						OFFSET 9.825497 2.506317 -1.597400
						CHANNELS 3 Xrotation Yrotation Zrotation
						JOINT LeftForeArm
						{
							OFFSET 21.966244 0.000000 0.000000
							CHANNELS 3 Xrotation Yrotation Zrotation
							JOINT LeftHand
							{
								OFFSET 33.879036 0.000000 0.000000
								CHANNELS 3 Xrotation Yrotation Zrotation
								JOINT LeftHandThumb1
								{
									OFFSET 6.715286 -2.359680 3.363841
									CHANNELS 3 Xrotation Yrotation Zrotation
									JOINT LeftHandThumb2
									{
										OFFSET 2.507072 -1.447464 1.447461
										CHANNELS 3 Xrotation Yrotation Zrotation
										JOINT LeftHandThumb3
										{
											OFFSET 2.898338 -1.673355 1.673357
											CHANNELS 3 Xrotation Yrotation Zrotation
											End Site
											{
												OFFSET -0.295959 3.727692 -0.131651
											}
										}
									}
								}
								JOINT LeftHandIndex1
								{
									OFFSET 14.190811 -0.254547 3.840278
									CHANNELS 3 Xrotation Yrotation Zrotation
									JOINT LeftHandIndex2
									{
										OFFSET 3.551727 0.000000 -0.000000
										CHANNELS 3 Xrotation Yrotation Zrotation
										JOINT LeftHandIndex3
										{
											OFFSET 2.894196 0.000000 0.000000
											CHANNELS 3 Xrotation Yrotation Zrotation
											End Site
											{
												OFFSET -1.000603 2.690872 0.366626
											}
										}
									}
								}
								JOINT LeftHandMiddle1
								{
									OFFSET 13.776489 0.000000 0.000000
									CHANNELS 3 Xrotation Yrotation Zrotation
									JOINT LeftHandMiddle2
									{
										OFFSET 3.438232 0.000000 0.000000
										CHANNELS 3 Xrotation Yrotation Zrotation
										JOINT LeftHandMiddle3
										{
											OFFSET 3.691551 0.000000 0.000000
											CHANNELS 3 Xrotation Yrotation Zrotation
											End Site
											{
												OFFSET -1.082298 3.499527 0.457670
											}
										}
									}
								}
								JOINT LeftHandRing1
								{
									OFFSET 13.966164 -0.268127 -3.067488
									CHANNELS 3 Xrotation Yrotation Zrotation
									JOINT LeftHandRing2
									{
										OFFSET 3.162567 0.000000 0.000000
										CHANNELS 3 Xrotation Yrotation Zrotation
										JOINT LeftHandRing3
										{
											OFFSET 3.324348 0.000000 0.000000
											CHANNELS 3 Xrotation Yrotation Zrotation
											End Site
											{
												OFFSET -0.861900 3.184998 0.405154
											}
										}
									}
								}
								JOINT LeftHandPinky1
								{
									OFFSET 13.131393 -0.168503 -5.746925
									CHANNELS 3 Xrotation Yrotation Zrotation
									JOINT LeftHandPinky2
									{
										OFFSET 2.849182 0.000000 0.000000
										CHANNELS 3 Xrotation Yrotation Zrotation
										JOINT LeftHandPinky3
										{
											OFFSET 2.805038 0.000000 0.000000
											CHANNELS 3 Xrotation Yrotation Zrotation
											End Site
											{
												OFFSET -0.882500 2.642609 0.325652
											}
										}
									}
								}
							}
							JOINT Left_Sleeve
							{
								OFFSET 6.592125 -0.646545 0.805568
								CHANNELS 3 Xrotation Yrotation Zrotation
								End Site
								{
									OFFSET -0.000179 20.275787 -0.000000
								}
							}
						}
					}
				}
				JOINT RightShoulder
				{
					OFFSET -5.731700 15.108002 -2.763700
					CHANNELS 3 Xrotation Yrotation Zrotation
					JOINT RightArm
					{
						OFFSET -9.825497 2.506317 -1.597400
						CHANNELS 3 Xrotation Yrotation Zrotation
						JOINT RightForeArm
						{
							OFFSET -21.966242 0.000000 0.000000
							CHANNELS 3 Xrotation Yrotation Zrotation
							JOINT RightHand
							{
								OFFSET -33.879032 0.000000 0.000000
								CHANNELS 3 Xrotation Yrotation Zrotation
								JOINT RightHandThumb1
								{
									OFFSET -6.715286 -2.359680 3.363841
									CHANNELS 3 Xrotation Yrotation Zrotation
									JOINT RightHandThumb2
									{
										OFFSET -2.507072 -1.447464 1.447461
										CHANNELS 3 Xrotation Yrotation Zrotation
										JOINT RightHandThumb3
										{
											OFFSET -2.898338 -1.673355 1.673357
											CHANNELS 3 Xrotation Yrotation Zrotation
											End Site
											{
												OFFSET 0.295959 3.727692 -0.131651
											}
										}
									}
								}
								JOINT RightHandIndex1
								{
									OFFSET -14.190811 -0.254547 3.840278
									CHANNELS 3 Xrotation Yrotation Zrotation
									JOINT RightHandIndex2
									{
										OFFSET -3.551727 0.000000 -0.000000
										CHANNELS 3 Xrotation Yrotation Zrotation
										JOINT RightHandIndex3
										{
											OFFSET -2.894196 0.000000 0.000000
											CHANNELS 3 Xrotation Yrotation Zrotation
											End Site
											{
												OFFSET 1.000603 2.690872 0.366626
											}
										}
									}
								}
								JOINT RightHandMiddle1
								{
									OFFSET -13.776489 0.000000 0.000000
									CHANNELS 3 Xrotation Yrotation Zrotation
									JOINT RightHandMiddle2
									{
										OFFSET -3.438232 0.000000 0.000000
										CHANNELS 3 Xrotation Yrotation Zrotation
										JOINT RightHandMiddle3
										{
											OFFSET -3.691551 0.000000 0.000000
											CHANNELS 3 Xrotation Yrotation Zrotation
											End Site
											{
												OFFSET 1.082298 3.499527 0.457670
											}
										}
									}
								}
								JOINT RightHandRing1
								{
									OFFSET -13.966164 -0.268127 -3.067488
									CHANNELS 3 Xrotation Yrotation Zrotation
									JOINT RightHandRing2
									{
										OFFSET -3.162567 0.000000 0.000000
										CHANNELS 3 Xrotation Yrotation Zrotation
										JOINT RightHandRing3
										{
											OFFSET -3.324348 0.000000 0.000000
											CHANNELS 3 Xrotation Yrotation Zrotation
											End Site
											{
												OFFSET 0.861900 3.184998 0.405154
											}
										}
									}
								}
								JOINT RightHandPinky1
								{
									OFFSET -13.131393 -0.168503 -5.746925
									CHANNELS 3 Xrotation Yrotation Zrotation
									JOINT RightHandPinky2
									{
										OFFSET -2.849182 0.000000 0.000000
										CHANNELS 3 Xrotation Yrotation Zrotation
										JOINT RightHandPinky3
										{
											OFFSET -2.805038 0.000000 0.000000
											CHANNELS 3 Xrotation Yrotation Zrotation
											End Site
											{
												OFFSET 0.882500 2.642609 0.325652
											}
										}
									}
								}
							}
							JOINT Right_Sleeve
							{
								OFFSET -6.592125 -0.646545 0.805568
								CHANNELS 3 Xrotation Yrotation Zrotation
								End Site
								{
									OFFSET 0.000179 20.275787 -0.000000
								}
							}
						}
					}
				}
				JOINT Bind_Right_JacketString
				{
					OFFSET -3.534800 11.969597 7.200700
					CHANNELS 3 Xrotation Yrotation Zrotation
					JOINT Bind_Right_JacketString1
					{
						OFFSET -0.319900 -6.102600 2.794100
						CHANNELS 3 Xrotation Yrotation Zrotation
						End Site
						{
							OFFSET 0.000000 6.719452 0.000000
						}
					}
				}
				JOINT Bind_Left_JacketString
				{
					OFFSET 2.904800 11.969597 7.200700
					CHANNELS 3 Xrotation Yrotation Zrotation
					JOINT Bind_Left_JacketString1
					{
						OFFSET 0.364800 -5.904503 3.186800
						CHANNELS 3 Xrotation Yrotation Zrotation
						End Site
						{
							OFFSET 0.000000 6.719513 0.000000
						}
					}
				}
				JOINT HairE
				{
					OFFSET 5.915200 17.612701 -11.592200
					CHANNELS 3 Xrotation Yrotation Zrotation
					JOINT HairE1
					{
						OFFSET 0.289200 -7.171898 -1.284500
						CHANNELS 3 Xrotation Yrotation Zrotation
						End Site
						{
							OFFSET 0.000000 7.291756 0.000000
						}
					}
				}
				JOINT HairF
				{
					OFFSET -0.864800 17.612701 -11.592200
					CHANNELS 3 Xrotation Yrotation Zrotation
					JOINT HairF1
					{
						OFFSET 0.000000 -14.087097 -2.127501
						CHANNELS 3 Xrotation Yrotation Zrotation
						End Site
						{
							OFFSET 0.000000 14.246841 0.000000
						}
					}
				}
				JOINT HairG
				{
					OFFSET -8.087700 17.612701 -11.592200
					CHANNELS 3 Xrotation Yrotation Zrotation
					JOINT HairG1
					{
						OFFSET -0.293600 -6.081398 -0.910100
						CHANNELS 3 Xrotation Yrotation Zrotation
						End Site
						{
							OFFSET 0.000000 6.156120 0.000000
						}
					}
				}
			}
		}
	}
	JOINT Pouch
	{
		OFFSET 0.000000 4.394501 10.847300
		CHANNELS 3 Xrotation Yrotation Zrotation
		End Site
		{
			OFFSET 0.000000 21.880577 0.000000
		}
	}
	JOINT Bag
	{
		OFFSET -13.229000 4.813004 -0.593300
		CHANNELS 3 Xrotation Yrotation Zrotation
		End Site
		{
			OFFSET 0.000000 21.880577 0.000000
		}
	}
	JOINT OccupyGuyFacialAnim_Joint
	{
		OFFSET 1.000000 -70.206398 -1.655000
		CHANNELS 3 Xrotation Yrotation Zrotation
		End Site
		{
			OFFSET 0.000000 21.880577 0.000000
		}
	}
}
MOTION
Frames: 4
Frame Time: 0.033333
0.352490 65.900703 1.140674 -2.041634 -8.432464 -10.324281 -0.000000 -0.000001 0.000001 -37.025653 17.975927 22.902417 51.463484 -0.781885 -1.878383 -18.579163 -6.098468 3.851612 -0.000000 -0.000000 0.000000 0.000001 0.000000 -0.000001 -8.262570 12.908001 -3.050586 29.684108 1.087279 1.141603 -14.777095 -27.865063 15.349424 0.000000 -0.000000 -0.000000 -0.000000 -0.000001 0.000003 2.075348 -0.035438 -1.107874 4.147498 -0.177575 -3.144569 4.147497 -0.177570 -3.144566 7.851212 14.522519 -9.988526 -25.839779 49.348188 2.450870 -0.000002 0.000002 0.000001 -0.000002 0.000002 0.000001 -0.000002 0.000002 0.000002 -0.000002 0.000002 0.000000 -0.000003 0.000002 -0.000000 -0.000002 0.000002 0.000000 -0.000003 0.000002 -0.000000 -0.000002 0.000002 0.000001 -0.000002 0.000002 0.000001 2.257702 -31.692832 -3.160504 -16.120310 9.860905 -39.663038 -108.363478 -43.241176 -117.121707 -66.658719 -12.311935 -31.902215 39.619103 -14.633779 -3.881853 4.768254 0.639726 5.888834 -0.000000 -0.000000 -0.000001 1.273099 -4.474407 -30.792610 -3.986345 -1.653177 -52.754076 0.000003 0.000000 0.000003 3.414990 -3.995985 -21.951965 -4.985935 -3.852668 -61.715895 0.000001 -0.000001 0.000002 -1.869454 9.441210 -27.399731 -0.753641 -4.145431 -56.292845 0.000000 0.000002 -0.000006 -1.843455 19.298906 -32.738138 0.542399 -6.922701 -49.393927 0.000000 -0.000001 -0.000003 0.000003 -0.000002 0.000002 1.122654 19.710265 5.972652 12.826924 -6.943771 59.366748 49.318388 124.100617 -27.966239 -16.963036 14.852159 13.492205 -17.650093 -8.983971 -11.339653 -10.298222 -17.937342 -5.829144 -0.000003 -0.000005 0.000000 10.080849 7.886867 12.199119 0.171102 -1.180925 16.232675 -0.000001 -0.000002 -0.000004 -10.260624 2.286577 89.587090 -9.463134 -0.535948 111.118497 0.000004 -0.000000 -0.000001 0.378463 -10.160760 102.649936 -4.718810 8.210310 106.018674 0.000000 -0.000001 -0.000001 3.182925 -24.176722 100.359084 -4.973782 13.921066 117.225348 0.000001 0.000002 0.000002 0.000001 -0.000000 0.000001 0.000000 0.000000 0.000000 -0.000000 -0.000000 -0.000002 0.000000 0.000000 0.000000 0.000000 0.000000 0.000000 0.000000 0.000000 0.000000 -0.000000 -0.000000 -0.000001 0.000000 0.000000 0.000000 0.000000 0.000000 0.000000 0.000000 0.000000 0.000000 -0.000000 -0.000000 -0.000001 -0.000000 -0.000001 0.000001 -0.000000 -0.000001 0.000001 -0.000000 -0.000001 0.000001 
0.650968 66.101044 1.096897 -0.568660 -5.082311 -9.299641 -0.000000 -0.000000 -0.000000 -38.242157 17.110988 21.882808 52.872658 -1.334878 -3.061690 -17.079392 -5.618179 5.015724 0.000000 0.000000 -0.000000 -0.000002 0.000000 0.000001 -7.537997 11.140852 -4.312314 28.077786 -0.753864 0.980420 -13.955828 -27.872882 16.133001 -0.000000 -0.000000 0.000000 0.000000 -0.000000 0.000001 1.852788 -0.412523 -0.800289 3.688937 -0.922660 -2.490584 3.688940 -0.922663 -2.490586 7.819466 15.436945 -10.078875 -25.343789 50.444495 -0.960238 0.000001 0.000001 -0.000001 0.000001 0.000001 -0.000001 0.000001 0.000001 -0.000001 0.000001 0.000001 -0.000000 0.000000 -0.000001 0.000001 0.000001 0.000001 -0.000000 0.000000 -0.000001 0.000001 0.000001 0.000001 -0.000001 0.000001 0.000001 -0.000001 1.871248 -31.522624 -2.766172 -17.044003 10.232090 -39.301226 -106.668055 -43.508063 -114.692181 -67.713020 -11.828664 -32.214560 39.590546 -14.603359 -3.880368 4.770601 0.645410 5.889334 0.000000 -0.000000 0.000002 1.273859 -4.470025 -30.799901 -3.989021 -1.662901 -52.793213 0.000002 -0.000001 -0.000000 3.408001 -3.998228 -21.998074 -4.986621 -3.853053 -61.725533 -0.000001 0.000001 0.000001 -1.871654 9.437077 -27.454389 -0.754632 -4.146107 -56.306987 -0.000002 0.000003 -0.000003 -1.829690 19.284856 -32.802024 0.542078 -6.920106 -49.419899 -0.000000 0.000000 0.000001 -0.000001 0.000001 -0.000002 1.712071 20.218557 3.739881 10.760802 -4.778011 60.941345 51.322567 124.013395 -31.121641 -16.253168 13.166884 13.207822 -17.623336 -8.988804 -11.327091 -10.279025 -17.918513 -5.836749 0.000004 0.000001 -0.000003 10.071946 7.885507 12.199469 0.171373 -1.181624 16.252391 -0.000001 -0.000000 0.000000 -10.255019 2.292470 89.561853 -9.463727 -0.536173 111.128735 0.000001 -0.000001 0.000002 0.371771 -10.163093 102.622035 -4.718812 8.210294 106.018654 0.000002 -0.000000 0.000004 3.169318 -24.157076 100.341332 -4.973308 13.925496 117.212467 -0.000003 -0.000001 0.000002 -0.000001 0.000001 0.000002 -0.000000 -0.000001 -0.000000 -0.000000 0.000001 0.000001 -0.000000 -0.000001 0.000000 -0.000000 -0.000001 0.000000 -0.000000 -0.000001 -0.000000 -0.000000 0.000001 0.000001 -0.000000 -0.000001 0.000000 -0.000000 -0.000001 0.000000 -0.000000 -0.000001 -0.000000 -0.000000 0.000001 0.000001 -0.000000 -0.000000 -0.000000 -0.000000 -0.000000 -0.000000 -0.000000 -0.000000 -0.000000 
0.794617 66.270775 0.887217 1.310756 -1.332526 -8.212234 -0.000000 -0.000000 -0.000001 -41.564420 17.274274 21.645773 55.345265 1.281412 -4.713451 -14.177803 -5.200365 5.972982 0.000000 0.000002 -0.000000 -0.000002 -0.000001 -0.000000 -7.928097 6.187599 -6.212520 27.044404 0.312711 0.988325 -13.785244 -27.804290 15.861120 -0.000000 0.000000 0.000000 -0.000001 -0.000000 -0.000000 1.628673 -0.783286 -0.674088 3.227875 -1.685767 -2.263136 3.227872 -1.685765 -2.263133 7.768690 16.449213 -10.159964 -24.643304 51.489019 -4.780380 0.000001 0.000001 -0.000001 0.000001 0.000001 -0.000001 0.000001 0.000001 0.000000 0.000001 0.000001 0.000000 -0.000002 0.000001 -0.000000 0.000001 0.000001 0.000000 -0.000002 0.000001 -0.000000 0.000001 0.000001 -0.000001 0.000001 0.000001 -0.000001 1.955594 -31.869806 -0.106190 -18.279244 11.029198 -38.950499 -106.224994 -43.640138 -113.702316 -68.548257 -10.471920 -28.356972 39.505958 -14.517157 -3.873498 4.768239 0.672416 5.886259 0.000005 -0.000000 0.000001 1.281034 -4.452743 -30.828390 -4.010470 -1.694466 -52.907533 0.000001 0.000002 0.000000 3.383642 -4.004028 -22.134925 -4.992619 -3.853358 -61.753960 0.000001 0.000001 -0.000001 -1.876638 9.429567 -27.616299 -0.747495 -4.150567 -56.348480 -0.000001 -0.000001 0.000002 -1.792783 19.239705 -32.989353 0.559638 -6.913275 -49.494798 0.000001 0.000000 -0.000001 -0.000003 -0.000002 -0.000001 2.053843 20.555280 2.729744 8.662157 -2.998557 61.986624 54.220890 125.628803 -33.666812 -17.074916 11.056371 11.345900 -17.543725 -9.006770 -11.291571 -10.223986 -17.858648 -5.859446 0.000001 -0.000002 -0.000005 10.045538 7.879056 12.199994 0.170656 -1.179267 16.310914 0.000001 0.000001 -0.000003 -10.234820 2.316027 89.487991 -9.472975 -0.549420 111.158235 0.000001 -0.000002 -0.000004 0.344692 -10.160427 102.538987 -4.720179 8.209896 106.031980 0.000001 -0.000001 -0.000001 3.122924 -24.099684 100.287879 -4.964277 13.946259 117.173794 0.000004 -0.000000 0.000000 0.000000 -0.000000 0.000000 0.000001 0.000000 0.000000 0.000001 0.000000 -0.000000 0.000001 0.000000 0.000000 0.000001 0.000000 0.000000 0.000001 0.000000 0.000000 0.000001 0.000000 0.000000 0.000001 0.000000 0.000000 0.000001 0.000000 0.000000 0.000001 0.000000 0.000000 0.000001 0.000000 0.000000 -0.000000 -0.000000 -0.000001 -0.000000 -0.000000 -0.000001 -0.000000 -0.000000 -0.000001 
0.656402 66.214462 0.403309 3.428630 3.299222 -7.723331 0.000000 -0.000000 0.000000 -47.375299 17.218506 23.107493 56.872137 5.778851 -6.492330 -10.940322 -4.019595 2.317221 0.000000 0.000003 -0.000001 0.000003 0.000001 0.000000 -10.071741 -1.203952 -8.017160 28.005724 3.239858 1.193526 -14.847300 -27.794217 14.713018 0.000000 -0.000002 -0.000000 -0.000000 -0.000000 0.000000 1.509913 -1.152905 -0.552518 2.977376 -2.480556 -2.071776 2.977377 -2.480557 -2.071781 7.696634 17.543783 -10.226473 -23.726995 52.386465 -8.669853 0.000001 0.000000 -0.000000 0.000001 0.000000 -0.000000 0.000001 0.000000 -0.000001 0.000001 0.000000 0.000000 0.000000 0.000000 0.000002 0.000001 0.000000 0.000000 0.000000 0.000000 0.000002 0.000001 0.000000 -0.000000 0.000001 0.000000 -0.000000 1.951085 -32.301102 2.000880 -19.570789 11.684635 -38.469743 -106.581311 -43.952708 -114.254694 -69.085738 -9.022129 -21.992770 39.367322 -14.376160 -3.862085 4.770391 0.714508 5.869154 -0.000001 -0.000005 -0.000004 1.297900 -4.424161 -30.874689 -4.045242 -1.745761 -53.094643 0.000002 0.000001 0.000003 3.344676 -4.019212 -22.359668 -5.013625 -3.863505 -61.799879 -0.000000 -0.000000 0.000001 -1.867660 9.417359 -27.884379 -0.732142 -4.149612 -56.416656 -0.000001 0.000000 0.000002 -1.732796 19.165685 -33.295765 0.591981 -6.907261 -49.616922 -0.000002 -0.000001 0.000003 0.000002 -0.000000 0.000001 2.329844 21.071562 2.206905 7.842243 -2.543094 62.298401 57.037226 128.441393 -35.101322 -18.881085 9.306564 9.074896 -17.413525 -9.035780 -11.233227 -10.133836 -17.761142 -5.896590 -0.000003 0.000002 -0.000000 10.004398 7.854169 12.199797 0.155281 -1.173633 16.407240 -0.000001 0.000000 -0.000001 -10.201658 2.353576 89.366851 -9.488390 -0.566261 111.206982 -0.000003 -0.000001 -0.000004 0.301204 -10.157233 102.403004 -4.713236 8.226217 106.053686 0.000003 -0.000000 -0.000001 3.047988 -24.006146 100.200480 -4.949102 13.980397 117.110820 0.000003 0.000000 -0.000001 -0.000000 0.000000 -0.000003 0.000000 0.000000 -0.000000 0.000000 0.000000 -0.000001 0.000000 0.000000 -0.000000 0.000000 0.000000 -0.000000 0.000000 0.000000 -0.000000 0.000000 0.000000 -0.000000 0.000000 0.000000 -0.000000 0.000000 0.000000 -0.000000 0.000000 0.000000 -0.000000 0.000000 0.000000 -0.000000 0.000000 -0.000000 0.000000 0.000000 -0.000000 0.000000 0.000000 -0.000000 0.000000 
